<svg width="15" height="15" viewBox="0 0 15 15" fill="none" xmlns="http://www.w3.org/2000/svg">
<path d="M3.01667 6.47284C4.21667 8.56469 6.15 10.2722 8.50833 11.344L10.3417 9.71779C10.5667 9.51821 10.9 9.45169 11.1917 9.54039C12.125 9.81388 13.1333 9.96171 14.1667 9.96171C14.625 9.96171 15 10.2943 15 10.7009V13.2806C15 13.6871 14.625 14.0197 14.1667 14.0197C6.34167 14.0197 0 8.39468 0 1.45389C0 1.04735 0.375 0.714722 0.833333 0.714722H3.75C4.20833 0.714722 4.58333 1.04735 4.58333 1.45389C4.58333 2.37785 4.75 3.26485 5.05833 4.09272C5.15 4.35143 5.08333 4.6397 4.85 4.84667L3.01667 6.47284Z" fill="white"/>
</svg>
