<svg width="15" height="16" viewBox="0 0 15 16" fill="none" xmlns="http://www.w3.org/2000/svg">
<path d="M3.01667 6.51926C4.21667 8.88762 6.15 10.8208 8.50833 12.0343L10.3417 10.1931C10.5667 9.96719 10.9 9.89187 11.1917 9.9923C12.125 10.3019 13.1333 10.4693 14.1667 10.4693C14.625 10.4693 15 10.8459 15 11.3062V14.2269C15 14.6872 14.625 15.0638 14.1667 15.0638C6.34167 15.0638 0 8.69514 0 0.836876C0 0.376594 0.375 0 0.833333 0H3.75C4.20833 0 4.58333 0.376594 4.58333 0.836876C4.58333 1.88297 4.75 2.88722 5.05833 3.82452C5.15 4.11743 5.08333 4.44381 4.85 4.67814L3.01667 6.51926Z" fill="white"/>
</svg>
