<svg width="35" height="36" viewBox="0 0 35 36" fill="none" xmlns="http://www.w3.org/2000/svg">
<path d="M17.5 0.454865C7.84 0.454865 0 8.32819 0 18.0293C0 27.7303 7.84 35.6037 17.5 35.6037C27.16 35.6037 35 27.7303 35 18.0293C35 8.32819 27.16 0.454865 17.5 0.454865ZM17.5 5.72718C20.405 5.72718 22.75 8.08215 22.75 10.9995C22.75 13.9169 20.405 16.2718 17.5 16.2718C14.595 16.2718 12.25 13.9169 12.25 10.9995C12.25 8.08215 14.595 5.72718 17.5 5.72718ZM17.5 30.6828C13.125 30.6828 9.2575 28.4333 7 25.0239C7.0525 21.5266 14 19.611 17.5 19.611C20.9825 19.611 27.9475 21.5266 28 25.0239C25.7425 28.4333 21.875 30.6828 17.5 30.6828Z" fill="black"/>
</svg>
