<svg width="15" height="13" viewBox="0 0 15 13" fill="none" xmlns="http://www.w3.org/2000/svg">
<path d="M3.01667 5.87186C4.21667 7.77372 6.15 9.32612 8.50833 10.3006L10.3417 8.82209C10.5667 8.64064 10.9 8.58016 11.1917 8.6608C12.125 8.90946 13.1333 9.04386 14.1667 9.04386C14.625 9.04386 15 9.34628 15 9.7159V12.0613C15 12.4309 14.625 12.7333 14.1667 12.7333C6.34167 12.7333 0 7.61915 0 1.30875C0 0.939134 0.375 0.636719 0.833333 0.636719H3.75C4.20833 0.636719 4.58333 0.939134 4.58333 1.30875C4.58333 2.14879 4.75 2.95524 5.05833 3.70791C5.15 3.94313 5.08333 4.20522 4.85 4.39339L3.01667 5.87186Z" fill="white"/>
</svg>
